<svg width="1966" height="704" viewBox="0 0 1966 704" fill="none" xmlns="http://www.w3.org/2000/svg">
<path d="M1652.4 215.665C1727.6 166.831 1828.15 188.203 1876.98 263.401C1925.82 338.599 1904.44 439.147 1829.25 487.982C1754.05 536.816 1653.5 515.444 1604.67 440.245C1590.78 418.872 1582.31 395.268 1579.48 370.089C1579.2 367.559 1581.02 365.277 1583.55 364.992C1586.08 364.708 1588.36 366.528 1588.64 369.059C1591.01 390.111 1597.57 409.995 1608.15 428.287L1608.28 428.512L1608.41 428.287C1620.99 406.507 1638.54 387.815 1659.55 373.896C1672.64 365.223 1686.91 358.54 1701.86 354.004L1701.85 353.713C1686.5 350.764 1671.61 345.625 1657.68 338.368C1635.33 326.717 1615.92 309.951 1601.13 289.594L1600.97 289.383L1600.87 289.621C1592.48 308.518 1587.88 329.21 1587.69 350.597C1587.67 353.144 1585.59 355.189 1583.04 355.166C1580.49 355.143 1578.45 353.059 1578.47 350.514C1578.96 295.82 1606.6 245.409 1652.4 215.665ZM1779.78 349.644L1779.8 349.935C1795.15 352.883 1810.04 358.022 1823.96 365.279C1846.29 376.916 1865.68 393.656 1880.46 413.98L1880.59 413.892L1880.72 413.952C1899.93 370.521 1898.66 318.968 1873.49 275.359L1873.36 275.134L1873.23 275.359C1860.65 297.14 1843.11 315.833 1822.1 329.752C1809.01 338.424 1794.74 345.107 1779.78 349.644ZM1749.75 356.222L1749.45 356.22L1749.63 356.46C1778.24 395.439 1824.03 418.77 1872.45 419.041L1872.45 418.891L1872.57 418.802C1843.89 379.788 1798.1 356.459 1749.75 356.222ZM1749.1 346.291L1748.95 346.549L1749.24 346.516C1797.3 341.226 1840.4 313.239 1864.85 271.441L1865 271.183L1864.7 271.216C1816.57 276.547 1773.48 304.536 1749.1 346.291ZM1748.42 499.423L1748.57 499.683L1748.69 499.409C1768.14 455.064 1765.45 403.747 1741.48 361.753L1741.33 361.495L1741.21 361.767C1721.76 406.036 1724.45 457.354 1748.42 499.423ZM1733.22 204.224L1733.08 203.964L1732.96 204.238C1713.51 248.583 1716.2 299.9 1740.17 341.893L1740.3 341.819L1740.44 341.879C1759.89 297.61 1757.2 246.293 1733.22 204.224ZM1864.53 261.962L1864.79 261.934L1864.64 261.724C1835.04 220.993 1788.46 198.867 1740.97 198.748L1740.71 198.747L1740.84 198.973C1753.39 220.746 1760.8 245.266 1762.35 270.399C1763.31 286.071 1761.95 301.765 1758.4 316.985L1758.66 317.117C1768.89 305.299 1780.8 294.982 1794.05 286.551C1815.31 273.02 1839.52 264.596 1864.53 261.962ZM1724.87 199.774L1724.97 199.537L1724.71 199.564C1701.43 201.989 1678.37 209.798 1657.42 223.399C1636.82 236.781 1620.11 254.601 1608.22 275.177L1608.35 275.252L1608.35 275.402C1633.52 275.401 1658.5 281.231 1681.07 292.471C1695.12 299.466 1708.03 308.474 1719.43 319.148L1719.67 318.989C1714.56 304.233 1711.58 288.772 1710.91 273.095C1709.82 247.922 1714.64 222.752 1724.87 199.774ZM1731.9 347.425L1732.19 347.426L1732.02 347.186C1703.41 308.208 1657.62 284.877 1609.2 284.606L1609.2 284.756L1609.08 284.845C1637.76 323.859 1683.54 347.188 1731.9 347.425ZM1732.55 357.355L1732.7 357.098L1732.4 357.131C1684.34 362.421 1641.24 390.408 1616.8 432.206L1616.65 432.464L1616.95 432.431C1665.07 427.1 1708.17 399.111 1732.55 357.355ZM1617.11 441.685L1616.85 441.712L1617.01 441.923C1646.61 482.653 1693.19 504.779 1740.68 504.899L1740.94 504.899L1740.81 504.674C1728.25 482.901 1720.85 458.38 1719.3 433.248C1718.33 417.576 1719.7 401.882 1723.24 386.662L1722.98 386.53C1712.76 398.348 1700.85 408.665 1687.6 417.096C1666.34 430.627 1642.13 439.05 1617.11 441.685ZM1762.22 384.499L1761.97 384.657C1767.09 399.414 1770.06 414.875 1770.74 430.552C1771.83 455.724 1767 480.894 1756.78 503.872L1756.67 504.109L1756.93 504.083C1780.22 501.658 1803.28 493.849 1824.22 480.248C1845.17 466.647 1861.68 448.755 1873.37 428.469L1873.5 428.245L1873.24 428.245C1848.09 428.237 1823.13 422.408 1800.58 411.176C1786.53 404.18 1773.62 395.173 1762.22 384.499Z" stroke="#AD8E5F" stroke-width="0.3"/>
<path d="M218.354 133.888C338.834 60.0574 496.353 97.8744 570.184 218.354C644.014 338.834 606.197 496.353 485.717 570.184C365.237 644.014 207.718 606.197 133.888 485.717C112.903 451.472 100.528 413.938 97.106 374.156C96.7572 370.111 99.7534 366.551 103.799 366.203C107.842 365.855 111.403 368.852 111.751 372.895C114.61 406.135 124.121 437.709 140.025 466.942L140.149 467.169L140.285 466.948C161.003 433.156 189.411 404.433 223.08 383.372C244.062 370.249 266.816 360.309 290.565 353.779L290.557 353.488C266.5 348.21 243.253 339.499 221.617 327.493C186.877 308.215 156.994 281.002 134.532 248.322L134.384 248.107L134.273 248.342C120.288 277.746 112.199 310.13 111.016 343.792C110.873 347.85 107.469 351.022 103.412 350.879C99.3551 350.737 96.1826 347.331 96.3252 343.276C99.3538 257.132 144.972 178.856 218.354 133.888ZM413.506 350.293L413.514 350.585C437.57 355.862 460.817 364.573 482.453 376.579C517.151 395.833 547.005 423.004 569.457 455.632L569.581 455.547L569.716 455.611C601.743 388.03 601.873 306.819 564.047 237.128L563.923 236.9L563.788 237.121C543.068 270.915 514.66 299.64 480.989 320.701C460.009 333.824 437.255 343.763 413.506 350.293ZM365.91 359.416L365.612 359.407L365.782 359.652C409.221 422.195 480.34 460.811 556.556 463.234L556.561 463.084L556.684 462.999C513.142 400.397 442.021 361.783 365.91 359.416ZM365.365 343.71L365.208 343.963L365.505 343.938C441.387 337.591 510.39 295.309 550.596 230.515L550.754 230.261L550.456 230.286C474.471 236.694 405.47 278.98 365.365 343.71ZM357.996 584.755L358.137 585.018L358.264 584.748C390.707 515.739 388.587 434.84 352.581 367.742L352.44 367.479L352.313 367.749C319.868 436.639 321.985 517.538 357.996 584.755ZM346.077 119.316L345.936 119.053L345.809 119.323C313.365 188.333 315.485 269.232 351.491 336.329L351.623 336.258L351.759 336.322C384.203 267.432 382.086 186.533 346.077 119.316ZM550.559 215.533L550.818 215.512L550.671 215.298C505.747 149.955 433.329 113.203 358.575 111.058L358.314 111.05L358.439 111.279C377.317 146.098 387.973 185.032 389.376 224.69C390.251 249.419 387.458 274.087 381.24 297.917L381.496 298.056C398.096 279.86 417.284 264.098 438.501 251.362C472.551 230.923 511.042 218.651 550.559 215.533ZM333.098 111.887L333.21 111.653L332.951 111.673C296.194 114.531 259.567 125.873 226.035 146.421C193.043 166.639 166.012 194.004 146.444 225.907L146.572 225.985L146.568 226.135C186.218 227.171 225.326 237.386 260.422 256.025C282.261 267.624 302.233 282.347 319.753 299.633L320.002 299.481C312.554 276.023 308.503 251.543 308.083 226.818C307.408 187.116 316.047 147.663 333.098 111.887ZM338.161 344.654L338.459 344.663L338.289 344.418C294.851 281.877 223.731 243.26 147.515 240.837L147.51 240.987L147.387 241.072C190.929 303.674 262.05 342.288 338.161 344.654ZM338.706 360.361L338.863 360.108L338.566 360.133C262.684 366.48 193.681 408.762 153.475 473.557L153.317 473.81L153.615 473.785C229.6 467.377 298.601 425.091 338.706 360.361ZM153.512 488.538L153.253 488.559L153.4 488.773C198.324 554.115 270.742 590.868 345.496 593.013L345.757 593.021L345.633 592.792C326.754 557.974 316.098 519.039 314.695 479.382C313.821 454.653 316.614 429.985 322.831 406.155L322.575 406.016C305.976 424.211 286.789 439.973 265.571 452.709C231.52 473.148 193.029 485.42 153.512 488.538ZM384.318 404.438L384.07 404.59C391.518 428.048 395.569 452.527 395.99 477.254C396.664 516.954 388.024 556.406 370.973 592.184L370.861 592.419L371.12 592.398C407.876 589.541 444.504 578.198 478.036 557.65C511.568 537.101 538.304 509.615 557.536 478.162L557.672 477.941L557.412 477.934C517.793 476.885 478.718 466.672 443.651 448.047C421.811 436.446 401.839 421.724 384.318 404.438Z" stroke="#AD8E5F" stroke-width="0.3"/>
</svg>
