<svg xmlns="http://www.w3.org/2000/svg" viewBox="0 0 81 81"><defs><style>.cls-1{isolation:isolate;}.cls-2,.cls-3,.cls-4{fill:#232323;}.cls-3,.cls-5{opacity:0.3;mix-blend-mode:overlay;}.cls-4{mix-blend-mode:multiply;}.cls-6{fill:none;stroke:#232323;stroke-miterlimit:10;stroke-width:2px;}</style></defs><title>logo1Asset 2</title><g class="cls-1"><g id="Layer_2" data-name="Layer 2"><g id="OBJECTS"><path class="cls-2" d="M69.75,32.54a16.21,16.21,0,0,0-22.88,0l-6.11,6.12a16.14,16.14,0,0,0-22,.76l-7.67,7.67.79.79a16.2,16.2,0,0,0,22.88,0l6.12-6.11a16.14,16.14,0,0,0,22-.76l7.67-7.67ZM33.13,46.29a13.94,13.94,0,0,1-18.86.77l6-6.05a13.91,13.91,0,0,1,18.86-.76Zm28.16-6.87a13.92,13.92,0,0,1-18.87.76l6-6a13.94,13.94,0,0,1,18.86-.77Z"/><path class="cls-3" d="M30.16,36.76a14,14,0,0,0-10,4.13L14,47.07l.14.12a14.11,14.11,0,0,0,19.1-.78l6.18-6.17-.14-.13A14.1,14.1,0,0,0,30.16,36.76Zm3,9.53a13.94,13.94,0,0,1-18.86.77l6-6.05a13.91,13.91,0,0,1,18.86-.76Zm25.18-16.4a14,14,0,0,0-10,4.13l-6.17,6.17.14.12a14.09,14.09,0,0,0,19.1-.77l6.17-6.18-.14-.12A14.1,14.1,0,0,0,58.31,29.89Zm3,9.53a13.92,13.92,0,0,1-18.87.76l6-6a13.94,13.94,0,0,1,18.86-.77Zm8.46-6.88a16.21,16.21,0,0,0-22.88,0l-6.11,6.12a16.14,16.14,0,0,0-22,.76l-7.67,7.67.79.79a16.2,16.2,0,0,0,22.88,0l6.12-6.11a16.14,16.14,0,0,0,22-.76l7.67-7.67Zm-7,8.35A16,16,0,0,1,41,41.64l-.12-.11L34.6,47.76a16,16,0,0,1-22.63,0l-.68-.67,7.55-7.55a16,16,0,0,1,21.81-.75l.12.11L47,32.67a16,16,0,0,1,22.63,0l.67.67Z"/><path class="cls-4" d="M67.25,36.64a4.87,4.87,0,0,0-1.7-1.49l-4.26,4.27a14.06,14.06,0,0,1-4.67,3.08A5.73,5.73,0,0,0,58.77,44a16.1,16.1,0,0,0,4.11-3Z"/><path class="cls-4" d="M39.48,43.12a4,4,0,0,0-.56-2.62l-5.79,5.79a13.86,13.86,0,0,1-7.36,3.84,24.14,24.14,0,0,0-.71,2.38,16.06,16.06,0,0,0,9.66-4.63Z"/><path class="cls-4" d="M14.63,43.5a10.93,10.93,0,0,0,1.79,1.4L20.31,41a13.9,13.9,0,0,1,5.78-3.48,8.84,8.84,0,0,0-1.83-1.73,16,16,0,0,0-5.54,3.62Z"/><path class="cls-4" d="M46.87,32.54l-3.13,3.14A4.16,4.16,0,0,0,46,36l.71-.11,1.74-1.73a13.87,13.87,0,0,1,8.61-4l.78-2.29A16.14,16.14,0,0,0,46.87,32.54Z"/><path class="cls-2" d="M48.47,11.26l-.8-.8L40,18.13a16.19,16.19,0,0,0-.76,22l-6.11,6.12a16.19,16.19,0,0,0,0,22.88l.79.79,7.67-7.66a16.2,16.2,0,0,0,.76-22l6.12-6.11A16.21,16.21,0,0,0,48.47,11.26ZM40,60.7l-6,6a14,14,0,0,1,.76-18.87l6.05-6A13.94,13.94,0,0,1,40,60.7Zm.83-22.11a13.94,13.94,0,0,1,.76-18.86l6-6.05a13.94,13.94,0,0,1-.77,18.86Z"/><path class="cls-3" d="M40.78,41.58,34.6,47.76a14.17,14.17,0,0,0-.78,19.1L34,67l6.17-6.18a14.16,14.16,0,0,0,.78-19.09ZM40,60.7l-6,6a14,14,0,0,1,.76-18.87l6.05-6A13.94,13.94,0,0,1,40,60.7Zm7.77-47.13-.12-.14L41.47,19.6a14.16,14.16,0,0,0-.77,19.1l.12.14L47,32.67A14.16,14.16,0,0,0,47.77,13.57Zm-.9,19-6,6.05a13.94,13.94,0,0,1,.76-18.86l6-6.05A13.94,13.94,0,0,1,46.87,32.54Zm1.6-21.28-.8-.8L40,18.13a16.19,16.19,0,0,0-.76,22l-6.11,6.12a16.19,16.19,0,0,0,0,22.88l.79.79,7.67-7.66a16.2,16.2,0,0,0,.76-22l6.12-6.11A16.21,16.21,0,0,0,48.47,11.26Zm-6.36,29,.11.12a16,16,0,0,1-.75,21.8l-7.55,7.55-.67-.67a16,16,0,0,1,0-22.64l6.23-6.23-.1-.12a16,16,0,0,1,.74-21.8l7.55-7.55.67.67a16,16,0,0,1,0,22.64Z"/><path class="cls-4" d="M44.93,57.41a6.25,6.25,0,0,0-.44-.61,5.86,5.86,0,0,0-1.28-1.15A13.61,13.61,0,0,1,40,60.7l-3.93,3.94a4.81,4.81,0,0,0,1.18,1.2,5.09,5.09,0,0,0,.5.3l3.84-3.84A16.07,16.07,0,0,0,44.93,57.41Z"/><path class="cls-4" d="M36.59,23.2l.43.37a11.89,11.89,0,0,0,1.45,1,13.78,13.78,0,0,1,3.12-4.82l4-4a6.26,6.26,0,0,0-1.85-1.34L40,18.13A16,16,0,0,0,36.59,23.2Z"/><path class="cls-2" d="M48.47,46.29l-6.12-6.12a16.19,16.19,0,0,0-.76-22l-7.67-7.67-.79.8a16.19,16.19,0,0,0,0,22.88l6.11,6.11a16.2,16.2,0,0,0,.76,22L47.67,70l.8-.79A16.21,16.21,0,0,0,48.47,46.29ZM34,13.68l6,6.05a13.94,13.94,0,0,1,.77,18.86l-6.05-6.05A13.94,13.94,0,0,1,34,13.68ZM47.64,66.75l-6-6a13.94,13.94,0,0,1-.76-18.86l6,6A14,14,0,0,1,47.64,66.75Z"/><path class="cls-3" d="M40.9,38.7a14.17,14.17,0,0,0-.78-19.1L34,13.43l-.13.14a14.17,14.17,0,0,0,.78,19.1l6.18,6.17Zm-6.18-6.16A13.94,13.94,0,0,1,34,13.68l6,6.05a13.94,13.94,0,0,1,.77,18.86ZM48.47,46.29l-6.12-6.12a16.19,16.19,0,0,0-.76-22l-7.67-7.67-.79.8a16.19,16.19,0,0,0,0,22.88l6.11,6.11a16.2,16.2,0,0,0,.76,22L47.67,70l.8-.79A16.21,16.21,0,0,0,48.47,46.29Zm-.13,22.76-.67.67-7.55-7.55a16,16,0,0,1-.74-21.8l.1-.12L33.25,34a16,16,0,0,1,0-22.64l.67-.67,7.55,7.55a16,16,0,0,1,.75,21.8l-.11.12,6.23,6.23A16,16,0,0,1,48.34,69.05ZM47,47.76l-6.18-6.18-.12.15a14.15,14.15,0,0,0,.77,19.09L47.65,67l.12-.14A14.16,14.16,0,0,0,47,47.76Zm.64,19-6-6a13.94,13.94,0,0,1-.76-18.86l6,6A14,14,0,0,1,47.64,66.75Z"/><path class="cls-4" d="M48.47,46.29l-1.79-1.78a3.88,3.88,0,0,0-2,1.21l2.16,2.16a13.89,13.89,0,0,1,4,11.34,4.52,4.52,0,0,0,.75.12,4.16,4.16,0,0,0,1.53-.2A16.14,16.14,0,0,0,48.47,46.29Z"/><path class="cls-4" d="M33.13,34.14l3.38,3.38c.8-.18-.44-3.63-.44-3.63l-1.35-1.35A13.8,13.8,0,0,1,31,25.73a18.64,18.64,0,0,0-2.43-.91A16.08,16.08,0,0,0,33.13,34.14Z"/><path class="cls-2" d="M62.88,39.42a16.14,16.14,0,0,0-22-.76l-6.12-6.12a16.21,16.21,0,0,0-22.88,0l-.79.8L18.72,41a16.14,16.14,0,0,0,22,.76l6.11,6.11a16.2,16.2,0,0,0,22.88,0l.8-.79ZM30.16,43.5a13.84,13.84,0,0,1-9.85-4.08l-6-6.05a13.94,13.94,0,0,1,18.86.77l6,6A13.77,13.77,0,0,1,30.16,43.5Zm18.31,2.79-6-6A13.92,13.92,0,0,1,61.29,41l6,6.05A13.94,13.94,0,0,1,48.47,46.29Z"/><path class="cls-3" d="M62.88,39.42a16.14,16.14,0,0,0-22-.76l-6.12-6.12a16.21,16.21,0,0,0-22.88,0l-.79.8L18.72,41a16.14,16.14,0,0,0,22,.76l6.11,6.11a16.2,16.2,0,0,0,22.88,0l.8-.79Zm6.75,8.34a16,16,0,0,1-22.63,0l-6.23-6.23-.12.11a16,16,0,0,1-21.81-.75l-7.55-7.55.68-.67a16,16,0,0,1,22.63,0l6.23,6.23.12-.11a16,16,0,0,1,21.81.75l7.54,7.55ZM23.28,29.89a14.1,14.1,0,0,0-9.13,3.35l-.14.12,6.18,6.18a14.09,14.09,0,0,0,19.1.77l.14-.12L33.25,34A14,14,0,0,0,23.28,29.89ZM30.16,43.5a13.84,13.84,0,0,1-9.85-4.08l-6-6.05a13.94,13.94,0,0,1,18.86.77l6,6A13.77,13.77,0,0,1,30.16,43.5Zm21.28-6.74a14.1,14.1,0,0,0-9.13,3.35l-.14.13,6.17,6.17a14.11,14.11,0,0,0,19.1.78l.14-.12-6.17-6.18A14,14,0,0,0,51.44,36.76Zm-3,9.53-6-6A13.92,13.92,0,0,1,61.29,41l6,6.05A13.94,13.94,0,0,1,48.47,46.29Z"/><path class="cls-2" d="M23.89,69.38a2.69,2.69,0,0,1-2.67-2.28,13.09,13.09,0,0,1,1.23-8.54A12,12,0,0,1,16.54,60a17.33,17.33,0,0,1-2.63-.21,2.71,2.71,0,0,1,.43-5.39,2.55,2.55,0,0,1,1,.21,19.24,19.24,0,0,0,7,1.65A5.74,5.74,0,0,0,25,55.8l.56-.33-.33.57s-1.58,2.85,1.2,9.61a2.71,2.71,0,0,1-1.84,3.64A2.65,2.65,0,0,1,23.89,69.38Zm33.81,0a2.57,2.57,0,0,1-.67-.09,2.74,2.74,0,0,1-1.76-1.41,2.67,2.67,0,0,1-.08-2.23C58,58.89,56.4,56.07,56.38,56l-.33-.57.57.33a5.68,5.68,0,0,0,2.58.46,19,19,0,0,0,7-1.66,2.76,2.76,0,0,1,1-.2,2.71,2.71,0,0,1,.43,5.39,17.31,17.31,0,0,1-2.62.21,12.07,12.07,0,0,1-5.92-1.44,13,13,0,0,1,1.23,8.54,2.68,2.68,0,0,1-2.67,2.28ZM67.25,26a2.59,2.59,0,0,1-1-.21,19,19,0,0,0-7-1.65,5.57,5.57,0,0,0-2.58.46l-.57.33.33-.57s1.59-2.85-1.19-9.61a2.67,2.67,0,0,1,.08-2.23A2.74,2.74,0,0,1,57,11.14a2.57,2.57,0,0,1,.67-.09,2.68,2.68,0,0,1,2.67,2.28,13,13,0,0,1-1.23,8.54,12.07,12.07,0,0,1,5.92-1.44,17.31,17.31,0,0,1,2.62.21A2.71,2.71,0,0,1,67.25,26ZM14.34,26a2.71,2.71,0,0,1-.43-5.39,17.33,17.33,0,0,1,2.63-.21,12,12,0,0,1,5.91,1.44,13.09,13.09,0,0,1-1.23-8.54,2.69,2.69,0,0,1,2.67-2.28,2.65,2.65,0,0,1,.68.09,2.71,2.71,0,0,1,1.84,3.64c-2.79,6.78-1.21,9.58-1.2,9.61l.34.57L25,24.63a5.57,5.57,0,0,0-2.58-.46,19,19,0,0,0-7,1.65A2.55,2.55,0,0,1,14.34,26Z"/><g class="cls-5"><path class="cls-2" d="M56.38,24.39l-.33.57.57-.33a5.57,5.57,0,0,1,2.58-.46,19,19,0,0,1,7,1.65,2.59,2.59,0,0,0,1,.21h0a2.71,2.71,0,0,0,.43-5.39,17.31,17.31,0,0,0-2.62-.21,12.07,12.07,0,0,0-5.92,1.44,13,13,0,0,0,1.23-8.54,2.68,2.68,0,0,0-2.67-2.28,2.57,2.57,0,0,0-.67.09,2.74,2.74,0,0,0-1.76,1.41,2.67,2.67,0,0,0-.08,2.23C58,21.54,56.4,24.36,56.38,24.39Zm.69-13.08a2.53,2.53,0,0,1,3.13,2,12.88,12.88,0,0,1-1.55,9,12.86,12.86,0,0,1,9-1.56,2.53,2.53,0,1,1-1.35,4.85c-6.94-2.85-9.77-1.18-9.77-1.18s1.67-2.82-1.18-9.77A2.52,2.52,0,0,1,57.07,11.31Z"/><path class="cls-2" d="M25.21,56l.33-.57L25,55.8a5.74,5.74,0,0,1-2.58.46,19.24,19.24,0,0,1-7-1.65,2.55,2.55,0,0,0-1-.21,2.71,2.71,0,0,0-.43,5.39,17.33,17.33,0,0,0,2.63.21,12,12,0,0,0,5.91-1.44,13.09,13.09,0,0,0-1.23,8.54,2.69,2.69,0,0,0,2.67,2.28,2.65,2.65,0,0,0,.68-.09,2.71,2.71,0,0,0,1.84-3.64C23.63,58.89,25.2,56.07,25.21,56Zm-.69,13.08a2.53,2.53,0,0,1-3.13-2.05,12.89,12.89,0,0,1,1.56-9,12.89,12.89,0,0,1-9,1.56,2.53,2.53,0,1,1,1.36-4.85C22.24,57.62,25.06,56,25.06,56s-1.67,2.82,1.19,9.77A2.53,2.53,0,0,1,24.52,69.12Z"/><path class="cls-2" d="M24.57,11.14a2.65,2.65,0,0,0-.68-.09,2.69,2.69,0,0,0-2.67,2.28,13.09,13.09,0,0,0,1.23,8.54,12,12,0,0,0-5.91-1.44,17.33,17.33,0,0,0-2.63.21A2.71,2.71,0,0,0,14.34,26a2.55,2.55,0,0,0,1-.21,19,19,0,0,1,7-1.65,5.57,5.57,0,0,1,2.58.46l.57.33-.34-.57s-1.59-2.83,1.2-9.61a2.71,2.71,0,0,0-1.84-3.64Zm1.68,3.57c-2.86,7-1.19,9.77-1.19,9.77s-2.82-1.67-9.76,1.18a2.53,2.53,0,1,1-1.36-4.85,12.89,12.89,0,0,1,9,1.56,12.89,12.89,0,0,1-1.56-9,2.54,2.54,0,1,1,4.86,1.35Z"/><path class="cls-2" d="M67.25,54.4a2.76,2.76,0,0,0-1,.2,19,19,0,0,1-7,1.66,5.68,5.68,0,0,1-2.58-.46l-.57-.33.33.57s1.59,2.85-1.19,9.61a2.67,2.67,0,0,0,.08,2.23A2.74,2.74,0,0,0,57,69.29a2.57,2.57,0,0,0,.67.09h0a2.68,2.68,0,0,0,2.67-2.28,13,13,0,0,0-1.23-8.54A12.07,12.07,0,0,0,65.06,60a17.31,17.31,0,0,0,2.62-.21,2.71,2.71,0,0,0-.43-5.39Zm.4,5.22a12.86,12.86,0,0,1-9-1.56,12.88,12.88,0,0,1,1.55,9,2.53,2.53,0,1,1-4.85-1.35C58.2,58.77,56.53,56,56.53,56s2.83,1.67,9.77-1.18a2.53,2.53,0,0,1,3.41,1.72h0A2.54,2.54,0,0,1,67.65,59.62Z"/></g><circle class="cls-6" cx="40.5" cy="40.5" r="39.5"/></g></g></g></svg>