<svg width="269" height="269" viewBox="0 0 269 269" fill="none" xmlns="http://www.w3.org/2000/svg">
<path d="M133.794 133C114.381 97.0805 107.641 78.2736 133.794 57" stroke="#202020" stroke-width="10" stroke-linecap="round" stroke-linejoin="round"/>
<path d="M134.821 133C154.233 97.0805 160.973 78.2736 134.821 57" stroke="#202020" stroke-width="10" stroke-linecap="round" stroke-linejoin="round"/>
<path d="M133.794 136C114.381 171.92 107.641 190.726 133.794 212" stroke="#202020" stroke-width="10" stroke-linecap="round" stroke-linejoin="round"/>
<path d="M134.821 136C154.233 171.92 160.973 190.726 134.821 212" stroke="#202020" stroke-width="10" stroke-linecap="round" stroke-linejoin="round"/>
<path d="M133.307 135.514C97.3876 154.926 78.5807 161.666 57.3071 135.514" stroke="#202020" stroke-width="10" stroke-linecap="round" stroke-linejoin="round"/>
<path d="M133.307 134.486C97.3876 115.074 78.5807 108.334 57.3071 134.486" stroke="#202020" stroke-width="10" stroke-linecap="round" stroke-linejoin="round"/>
<path d="M136.307 135.514C172.227 154.926 191.033 161.666 212.307 135.514" stroke="#202020" stroke-width="10" stroke-linecap="round" stroke-linejoin="round"/>
<path d="M136.307 134.486C172.227 115.074 191.033 108.334 212.307 134.486" stroke="#202020" stroke-width="10" stroke-linecap="round" stroke-linejoin="round"/>
<path d="M145.148 146.874C156.82 185.999 165.352 204.064 198.888 200.614" stroke="#202020" stroke-width="10" stroke-linecap="round" stroke-linejoin="round"/>
<path d="M145.874 146.148C184.999 157.82 203.064 166.352 199.614 199.888" stroke="#202020" stroke-width="10" stroke-linecap="round" stroke-linejoin="round"/>
<path d="M123.614 145.874C111.942 184.999 103.409 203.064 69.8739 199.614" stroke="#202020" stroke-width="10" stroke-linecap="round" stroke-linejoin="round"/>
<path d="M122.888 145.148C83.7622 156.82 65.6976 165.352 69.1477 198.888" stroke="#202020" stroke-width="10" stroke-linecap="round" stroke-linejoin="round"/>
<path d="M123.614 122.888C111.942 83.7623 103.409 65.6976 69.8739 69.1477" stroke="#202020" stroke-width="10" stroke-linecap="round" stroke-linejoin="round"/>
<path d="M122.888 123.614C83.7622 111.942 65.6976 103.409 69.1477 69.8739" stroke="#202020" stroke-width="10" stroke-linecap="round" stroke-linejoin="round"/>
<path d="M145.148 122.888C156.82 83.7623 165.352 65.6976 198.888 69.1477" stroke="#202020" stroke-width="10" stroke-linecap="round" stroke-linejoin="round"/>
<path d="M145.874 123.614C184.999 111.942 203.064 103.409 199.614 69.8739" stroke="#202020" stroke-width="10" stroke-linecap="round" stroke-linejoin="round"/>
<rect x="35" y="34" width="199.054" height="200" stroke="#212121" stroke-width="10"/>
<rect x="84.9289" y="57.4264" width="70" height="70" transform="rotate(-45 84.9289 57.4264)" stroke="#202020" stroke-width="10"/>
<rect x="7.92893" y="134.426" width="70" height="70" transform="rotate(-45 7.92893 134.426)" stroke="#202020" stroke-width="10"/>
<rect x="162.929" y="134.426" width="70" height="70" transform="rotate(-45 162.929 134.426)" stroke="#202020" stroke-width="10"/>
<rect x="84.9289" y="212.426" width="70" height="70" transform="rotate(-45 84.9289 212.426)" stroke="#202020" stroke-width="10"/>
</svg>
