<svg width="54" height="20" viewBox="0 0 54 20" fill="none" xmlns="http://www.w3.org/2000/svg">
<path d="M47.5554 13.3018C39.3597 13.4801 31.6928 17.0464 23.4971 17.4922C21.1177 17.5814 18.7383 17.3139 16.8877 16.244C20.2364 15.62 23.409 14.461 25.7884 12.2319C28.3441 9.9139 28.6084 5.6343 27.0221 2.60292C25.524 -0.250151 21.7346 -0.339309 19.0908 0.373958C12.8337 1.8895 8.60385 9.46797 12.1287 14.8173C8.2512 15.0848 4.37367 14.8173 0.584268 14.9958C-0.208863 15.0848 -0.208863 16.2439 0.672393 16.2439C4.54992 16.5113 9.22058 16.868 13.8031 16.6005C14.0675 16.779 14.3319 17.0464 14.5963 17.2246C23.9376 23.8223 37.5971 15.5306 47.6434 15.2631C48.789 15.174 48.789 13.2126 47.5554 13.3018ZM12.9219 11.1618C11.9525 7.50648 15.125 4.38594 18.0332 2.8701C20.9413 1.35441 25.0832 1.35441 26.0526 5.18822C27.1982 9.64614 23.4088 12.3207 19.7957 13.4799C18.1213 14.0149 16.535 14.3715 14.8606 14.5498C13.8914 13.6583 13.2745 12.5884 12.9219 11.1618Z" fill="#AD8E5F"/>
<path d="M53.5478 13.3907C52.3142 12.5883 51.1686 11.7859 50.023 10.9836C49.0536 10.2703 48.0842 9.4679 46.9386 9.20043C46.0573 8.93295 45.176 10.2703 45.9692 10.8943C46.9386 11.6076 47.9961 12.2317 48.9656 12.8558C49.6706 13.3017 50.3756 13.8365 50.9923 14.2823C50.2873 14.6389 49.5823 14.9064 48.8773 15.263C48.3486 15.5305 47.7317 15.798 47.2029 16.0655C47.0267 16.1546 46.8504 16.3329 46.7622 16.5113C46.4978 16.8679 46.6742 16.6897 46.7622 16.6004C46.4098 16.8679 46.4098 17.7595 47.0267 17.6703C47.2029 17.7595 47.379 17.7595 47.6434 17.7595C48.2603 17.5812 48.9655 17.3137 49.5822 17.0462C50.9042 16.5111 52.226 15.9762 53.4599 15.263C54.1647 14.7282 54.1647 13.7474 53.5478 13.3907Z" fill="#AD8E5F"/>
</svg>
